<mxfile host="app.diagrams.net" modified="2023-08-26T00:29:18.732Z" agent="Mozilla/5.0 (Macintosh; Intel Mac OS X 10_15_7) AppleWebKit/605.1.15 (KHTML, like Gecko) Version/16.6 Safari/605.1.15" etag="jLjbcW--2KO3SLrtiyFK" version="21.6.9" type="device">
  <diagram name="Page-1" id="bL2ti3FS8Qn9a3gcwUtS">
    <mxGraphModel dx="3576" dy="1551" grid="1" gridSize="10" guides="1" tooltips="1" connect="1" arrows="1" fold="1" page="1" pageScale="1" pageWidth="850" pageHeight="1100" math="0" shadow="0">
      <root>
        <mxCell id="0" />
        <mxCell id="1" parent="0" />
        <mxCell id="WjyPCUdjmkaTJlq7qZHi-3" style="edgeStyle=orthogonalEdgeStyle;rounded=0;orthogonalLoop=1;jettySize=auto;html=1;exitX=0;exitY=0.5;exitDx=0;exitDy=0;entryX=0;entryY=0.25;entryDx=0;entryDy=0;fontStyle=0;shape=flexArrow;fillColor=#ff2600;" edge="1" parent="1" source="nyXX6pM8MfZBQfrMpn8g-1" target="nyXX6pM8MfZBQfrMpn8g-5">
          <mxGeometry relative="1" as="geometry" />
        </mxCell>
        <mxCell id="WjyPCUdjmkaTJlq7qZHi-7" style="edgeStyle=orthogonalEdgeStyle;rounded=0;orthogonalLoop=1;jettySize=auto;html=1;exitX=0;exitY=0.75;exitDx=0;exitDy=0;entryX=0;entryY=0.75;entryDx=0;entryDy=0;shape=flexArrow;fillColor=#33FF33;" edge="1" parent="1" source="nyXX6pM8MfZBQfrMpn8g-1" target="nyXX6pM8MfZBQfrMpn8g-16">
          <mxGeometry relative="1" as="geometry">
            <Array as="points">
              <mxPoint x="-50" y="715" />
              <mxPoint x="-50" y="963" />
            </Array>
          </mxGeometry>
        </mxCell>
        <mxCell id="nyXX6pM8MfZBQfrMpn8g-1" value="&lt;span style=&quot;font-family: Menlo, Monaco, &amp;quot;Courier New&amp;quot;, monospace;&quot;&gt;&amp;nbsp; void function(char* mal_input){&lt;/span&gt;&lt;br&gt;&lt;font face=&quot;Menlo, Monaco, Courier New, monospace&quot;&gt;&lt;br&gt;&lt;/font&gt;&lt;span style=&quot;font-family: Menlo, Monaco, &amp;quot;Courier New&amp;quot;, monospace; white-space: pre;&quot;&gt;&amp;nbsp;&amp;nbsp;  &amp;nbsp;&amp;nbsp;&lt;/span&gt;&lt;span style=&quot;background-color: rgb(255, 255, 255); font-family: Menlo, Monaco, &amp;quot;Courier New&amp;quot;, monospace;&quot;&gt;char[64] buffer;&lt;/span&gt;&lt;br&gt;&lt;font face=&quot;Menlo, Monaco, Courier New, monospace&quot;&gt;&lt;br&gt;&lt;/font&gt;&lt;span style=&quot;font-family: Menlo, Monaco, &amp;quot;Courier New&amp;quot;, monospace; white-space: pre;&quot;&gt;&amp;nbsp;&amp;nbsp;&amp;nbsp;&amp;nbsp;  &lt;/span&gt;&lt;span style=&quot;font-family: Menlo, Monaco, &amp;quot;Courier New&amp;quot;, monospace; background-color: rgb(255, 255, 255);&quot;&gt;for(int i=0;i&amp;lt;strlen(mal_input);i++){&lt;/span&gt;&lt;br&gt;&lt;span style=&quot;font-family: Menlo, Monaco, &amp;quot;Courier New&amp;quot;, monospace; white-space: pre;&quot;&gt;&amp;nbsp;&amp;nbsp;&amp;nbsp;&amp;nbsp;&lt;/span&gt;&lt;span style=&quot;font-family: Menlo, Monaco, &amp;quot;Courier New&amp;quot;, monospace; border-color: var(--border-color);&quot;&gt;&lt;span style=&quot;white-space: pre;&quot;&gt;&amp;nbsp;&amp;nbsp; &amp;nbsp;&amp;nbsp;&lt;/span&gt;&lt;font style=&quot;border-color: var(--border-color);&quot; color=&quot;#ff3333&quot;&gt;//the buffer was overflown&lt;/font&gt;&lt;/span&gt;&lt;br&gt;&lt;span style=&quot;color: rgb(255, 51, 51); font-family: Menlo, Monaco, &amp;quot;Courier New&amp;quot;, monospace; white-space: pre;&quot;&gt;&amp;nbsp;&amp;nbsp;&amp;nbsp;&amp;nbsp;&lt;/span&gt;&lt;span style=&quot;color: rgb(255, 51, 51); font-family: Menlo, Monaco, &amp;quot;Courier New&amp;quot;, monospace; border-color: var(--border-color);&quot;&gt;&lt;span style=&quot;white-space: pre;&quot;&gt;&amp;nbsp;&amp;nbsp;&amp;nbsp;&amp;nbsp;&lt;/span&gt;  stack address re-written&lt;/span&gt;&lt;br&gt;&lt;span style=&quot;font-family: Menlo, Monaco, &amp;quot;Courier New&amp;quot;, monospace; white-space: pre;&quot;&gt;&amp;nbsp;&amp;nbsp;&amp;nbsp;&amp;nbsp;&lt;/span&gt;&lt;span style=&quot;font-family: Menlo, Monaco, &amp;quot;Courier New&amp;quot;, monospace; border-color: var(--border-color);&quot;&gt;&lt;span style=&quot;white-space: pre;&quot;&gt;&amp;nbsp;&amp;nbsp;&amp;nbsp; &amp;nbsp;&lt;/span&gt;&lt;/span&gt;&lt;span style=&quot;font-family: Menlo, Monaco, &amp;quot;Courier New&amp;quot;, monospace; background-color: rgb(255, 255, 255);&quot;&gt;buffer[i]=mal_input[i];&lt;/span&gt;&lt;br&gt;&lt;span style=&quot;border-color: var(--border-color); font-family: Menlo, Monaco, &amp;quot;Courier New&amp;quot;, monospace;&quot;&gt;&lt;span style=&quot;white-space: pre;&quot;&gt;&amp;nbsp;&amp;nbsp;&amp;nbsp;&amp;nbsp; &lt;/span&gt;&lt;/span&gt;&lt;span style=&quot;border-color: var(--border-color); font-family: Menlo, Monaco, &amp;quot;Courier New&amp;quot;, monospace; background-color: rgb(255, 255, 255);&quot;&gt;}&lt;/span&gt;&lt;br&gt;&lt;span style=&quot;font-family: Menlo, Monaco, &amp;quot;Courier New&amp;quot;, monospace; white-space: pre;&quot;&gt;&amp;nbsp;&amp;nbsp;&amp;nbsp;&amp;nbsp; &lt;/span&gt;&lt;span style=&quot;font-family: Menlo, Monaco, &amp;quot;Courier New&amp;quot;, monospace; background-color: rgb(255, 255, 255);&quot;&gt;return;&lt;/span&gt;&lt;br&gt;&lt;font face=&quot;Menlo, Monaco, Courier New, monospace&quot;&gt;&lt;br&gt;&lt;/font&gt;&lt;div style=&quot;border-color: var(--border-color); font-family: Menlo, Monaco, &amp;quot;Courier New&amp;quot;, monospace; line-height: 18px; font-size: 20px;&quot;&gt;&lt;span style=&quot;border-color: var(--border-color); background-color: rgb(255, 255, 255); font-size: 20px;&quot;&gt;&lt;font style=&quot;border-color: var(--border-color); font-size: 20px;&quot;&gt;&amp;nbsp; &amp;nbsp;}&lt;/font&gt;&lt;/span&gt;&lt;/div&gt;" style="rounded=1;whiteSpace=wrap;html=1;align=left;fontSize=20;" parent="1" vertex="1">
          <mxGeometry x="45" y="460" width="540" height="340" as="geometry" />
        </mxCell>
        <mxCell id="nyXX6pM8MfZBQfrMpn8g-5" value="&lt;blockquote style=&quot;margin: 0px 0px 0px 40px; border: medium; padding: 0px; font-size: 17px;&quot;&gt;&lt;div style=&quot;border-color: var(--border-color); font-family: Menlo, Monaco, &amp;quot;Courier New&amp;quot;, monospace; line-height: 18px;&quot;&gt;&lt;div style=&quot;border-color: var(--border-color); line-height: 18px;&quot;&gt;gadget1:&lt;/div&gt;&lt;div style=&quot;border-color: var(--border-color); line-height: 18px;&quot;&gt;&lt;br&gt;&lt;/div&gt;&lt;div style=&quot;border-color: var(--border-color); font-family: Helvetica; line-height: 18px;&quot;&gt;&lt;div style=&quot;border-color: var(--border-color); font-family: Menlo, Monaco, &amp;quot;Courier New&amp;quot;, monospace; line-height: 18px;&quot;&gt;&lt;div style=&quot;border-color: var(--border-color);&quot;&gt;&lt;span style=&quot;border-color: var(--border-color); background-color: rgb(255, 255, 255);&quot;&gt;movw r6, r20&lt;/span&gt;&lt;/div&gt;&lt;div style=&quot;border-color: var(--border-color);&quot;&gt;&lt;span style=&quot;border-color: var(--border-color); background-color: rgb(255, 255, 255);&quot;&gt;sub r6, r24&lt;/span&gt;&lt;/div&gt;&lt;div style=&quot;border-color: var(--border-color);&quot;&gt;&lt;span style=&quot;border-color: var(--border-color); background-color: rgb(255, 255, 255);&quot;&gt;sbc r7, r25&lt;/span&gt;&lt;/div&gt;&lt;div style=&quot;border-color: var(--border-color);&quot;&gt;&lt;span style=&quot;border-color: var(--border-color); background-color: rgb(255, 255, 255);&quot;&gt;movw r4, r6&lt;/span&gt;&lt;/div&gt;&lt;div style=&quot;border-color: var(--border-color);&quot;&gt;&lt;span style=&quot;border-color: var(--border-color); background-color: rgb(255, 255, 255);&quot;&gt;ldi r17, 0xFF ; 255&lt;/span&gt;&lt;/div&gt;&lt;div style=&quot;border-color: var(--border-color);&quot;&gt;&lt;span style=&quot;border-color: var(--border-color); background-color: rgb(255, 255, 255);&quot;&gt;sub r4, r17&lt;/span&gt;&lt;/div&gt;&lt;div style=&quot;border-color: var(--border-color);&quot;&gt;&lt;span style=&quot;border-color: var(--border-color); background-color: rgb(255, 255, 255);&quot;&gt;sbc r5, r17&lt;/span&gt;&lt;/div&gt;&lt;div style=&quot;border-color: var(--border-color);&quot;&gt;&lt;span style=&quot;border-color: var(--border-color); background-color: rgb(255, 255, 255);&quot;&gt;jmp gadget2&amp;nbsp;&lt;font style=&quot;border-color: var(--border-color); font-size: 17px;&quot; color=&quot;#ff3333&quot;&gt;//return to next gadget&lt;/font&gt;&lt;/span&gt;&lt;/div&gt;&lt;/div&gt;&lt;/div&gt;&lt;/div&gt;&lt;/blockquote&gt;" style="rounded=1;whiteSpace=wrap;html=1;align=left;" parent="1" vertex="1">
          <mxGeometry x="110" y="120" width="410" height="210" as="geometry" />
        </mxCell>
        <mxCell id="nyXX6pM8MfZBQfrMpn8g-6" value="&lt;blockquote style=&quot;margin: 0px 0px 0px 40px; border: medium; padding: 0px; font-size: 23px;&quot;&gt;&lt;div style=&quot;border-color: var(--border-color); font-family: Menlo, Monaco, &amp;quot;Courier New&amp;quot;, monospace; line-height: 18px;&quot;&gt;&lt;span style=&quot;background-color: rgb(255, 255, 255);&quot;&gt;gadget2:&lt;/span&gt;&lt;/div&gt;&lt;div style=&quot;border-color: var(--border-color); font-family: Menlo, Monaco, &amp;quot;Courier New&amp;quot;, monospace; line-height: 18px;&quot;&gt;&lt;span style=&quot;background-color: rgb(255, 255, 255);&quot;&gt;&lt;br&gt;&lt;/span&gt;&lt;/div&gt;&lt;div style=&quot;border-color: var(--border-color); font-family: Menlo, Monaco, &amp;quot;Courier New&amp;quot;, monospace; line-height: 18px;&quot;&gt;&lt;span style=&quot;background-color: rgb(255, 255, 255);&quot;&gt;//malicious codes&lt;/span&gt;&lt;/div&gt;&lt;div style=&quot;border-color: var(--border-color); line-height: 18px;&quot;&gt;&lt;div style=&quot;font-family: Menlo, Monaco, &amp;quot;Courier New&amp;quot;, monospace; line-height: 18px;&quot;&gt;&lt;br&gt;&lt;/div&gt;&lt;/div&gt;&lt;/blockquote&gt;" style="rounded=1;whiteSpace=wrap;html=1;align=left;" parent="1" vertex="1">
          <mxGeometry x="122.5" y="350" width="385" height="90" as="geometry" />
        </mxCell>
        <mxCell id="nyXX6pM8MfZBQfrMpn8g-16" value="&lt;blockquote style=&quot;margin: 0px 0px 0px 40px; border: medium; padding: 0px; font-size: 22px;&quot;&gt;&lt;div style=&quot;border-color: var(--border-color); font-family: Menlo, Monaco, &amp;quot;Courier New&amp;quot;, monospace; line-height: 18px;&quot;&gt;&lt;span style=&quot;background-color: rgb(255, 255, 255);&quot;&gt;void process_input(char* buffer, char* input){&lt;/span&gt;&lt;/div&gt;&lt;div style=&quot;border-color: var(--border-color); font-family: Menlo, Monaco, &amp;quot;Courier New&amp;quot;, monospace; line-height: 18px;&quot;&gt;&lt;span style=&quot;background-color: rgb(255, 255, 255);&quot;&gt;&lt;br&gt;&lt;/span&gt;&lt;/div&gt;&lt;div style=&quot;border-color: var(--border-color); font-family: Menlo, Monaco, &amp;quot;Courier New&amp;quot;, monospace; line-height: 18px;&quot;&gt;&lt;span style=&quot;background-color: rgb(255, 255, 255);&quot;&gt;&lt;span style=&quot;white-space: pre;&quot;&gt;&#x9;function(buffer, input);&lt;/span&gt;&lt;br&gt;&lt;/span&gt;&lt;/div&gt;&lt;div style=&quot;border-color: var(--border-color); font-family: Menlo, Monaco, &amp;quot;Courier New&amp;quot;, monospace; line-height: 18px;&quot;&gt;&lt;span style=&quot;background-color: rgb(255, 255, 255);&quot;&gt;&lt;span style=&quot;white-space: pre;&quot;&gt;&lt;br&gt;&lt;/span&gt;&lt;/span&gt;&lt;/div&gt;&lt;div style=&quot;border-color: var(--border-color); font-family: Menlo, Monaco, &amp;quot;Courier New&amp;quot;, monospace; line-height: 18px;&quot;&gt;&lt;span style=&quot;background-color: rgb(255, 255, 255);&quot;&gt;&lt;span style=&quot;white-space: pre;&quot;&gt;&lt;span style=&quot;white-space: pre;&quot;&gt;&#x9;&lt;font style=&quot;font-size: 22px;&quot; color=&quot;#ff3333&quot;&gt;//legal return position&lt;/font&gt;&lt;/span&gt;&lt;br&gt;&lt;/span&gt;&lt;/span&gt;&lt;/div&gt;&lt;div style=&quot;border-color: var(--border-color); font-family: Menlo, Monaco, &amp;quot;Courier New&amp;quot;, monospace; line-height: 18px;&quot;&gt;&lt;span style=&quot;background-color: rgb(255, 255, 255);&quot;&gt;&lt;span style=&quot;white-space: pre;&quot;&gt;&lt;span style=&quot;white-space: pre;&quot;&gt;&lt;font style=&quot;font-size: 22px;&quot; color=&quot;#ff3333&quot;&gt;&lt;br&gt;&lt;/font&gt;&lt;/span&gt;&lt;/span&gt;&lt;/span&gt;&lt;/div&gt;&lt;div style=&quot;border-color: var(--border-color); font-family: Menlo, Monaco, &amp;quot;Courier New&amp;quot;, monospace; line-height: 18px;&quot;&gt;&lt;span style=&quot;background-color: rgb(255, 255, 255);&quot;&gt;&lt;span style=&quot;white-space: pre;&quot;&gt;&lt;span style=&quot;white-space: pre;&quot;&gt;&#x9;check_validity(buffer);&lt;/span&gt;&lt;br&gt;&lt;/span&gt;&lt;/span&gt;&lt;/div&gt;&lt;div style=&quot;border-color: var(--border-color); font-family: Menlo, Monaco, &amp;quot;Courier New&amp;quot;, monospace; line-height: 18px;&quot;&gt;&lt;span style=&quot;background-color: rgb(255, 255, 255);&quot;&gt;}&lt;/span&gt;&lt;/div&gt;&lt;/blockquote&gt;" style="rounded=1;whiteSpace=wrap;html=1;align=left;" parent="1" vertex="1">
          <mxGeometry x="-20" y="820" width="670" height="190" as="geometry" />
        </mxCell>
        <mxCell id="WjyPCUdjmkaTJlq7qZHi-4" style="edgeStyle=orthogonalEdgeStyle;rounded=0;orthogonalLoop=1;jettySize=auto;html=1;entryX=1;entryY=0.5;entryDx=0;entryDy=0;fontStyle=0;shape=flexArrow;fillColor=#ff2600;exitX=1;exitY=0.75;exitDx=0;exitDy=0;" edge="1" parent="1" source="nyXX6pM8MfZBQfrMpn8g-5" target="nyXX6pM8MfZBQfrMpn8g-6">
          <mxGeometry relative="1" as="geometry">
            <mxPoint x="700" y="360" as="sourcePoint" />
            <mxPoint x="120" y="183" as="targetPoint" />
          </mxGeometry>
        </mxCell>
        <mxCell id="WjyPCUdjmkaTJlq7qZHi-8" value="&lt;font style=&quot;font-size: 20px;&quot;&gt;Illegal Path&lt;/font&gt;" style="text;html=1;strokeColor=none;fillColor=none;align=center;verticalAlign=middle;whiteSpace=wrap;rounded=0;" vertex="1" parent="1">
          <mxGeometry x="-110" y="350" width="140" height="60" as="geometry" />
        </mxCell>
        <mxCell id="WjyPCUdjmkaTJlq7qZHi-10" value="&lt;font style=&quot;font-size: 20px;&quot;&gt;Legal Path&lt;br&gt;&lt;/font&gt;" style="text;html=1;strokeColor=none;fillColor=none;align=center;verticalAlign=middle;whiteSpace=wrap;rounded=0;" vertex="1" parent="1">
          <mxGeometry x="-180" y="800" width="140" height="60" as="geometry" />
        </mxCell>
      </root>
    </mxGraphModel>
  </diagram>
</mxfile>
